<mxfile host="65bd71144e">
    <diagram id="GUkRdUyIuSBApQzKnwvI" name="Page-1">
        <mxGraphModel dx="793" dy="240" grid="1" gridSize="5" guides="1" tooltips="1" connect="1" arrows="1" fold="1" page="0" pageScale="1" pageWidth="1169" pageHeight="827" math="0" shadow="0">
            <root>
                <mxCell id="0"/>
                <mxCell id="1" parent="0"/>
                <mxCell id="58" value="RP2350" style="rounded=0;whiteSpace=wrap;html=1;points=[[0,0.17,0,0,0],[0,0.33,0,0,0],[0,0.5,0,0,0],[0,0.67,0,0,0],[0,0.83,0,0,0],[0.17,0,0,0,0],[0.17,1,0,0,0],[0.33,0,0,0,0],[0.33,1,0,0,0],[0.5,0,0,0,0],[0.5,1,0,0,0],[0.67,0,0,0,0],[0.67,1,0,0,0],[0.83,0,0,0,0],[0.83,1,0,0,0],[1,0.17,0,0,0],[1,0.33,0,0,0],[1,0.5,0,0,0],[1,0.67,0,0,0],[1,0.83,0,0,0]];" vertex="1" parent="1">
                    <mxGeometry x="240" y="240" width="120" height="60" as="geometry"/>
                </mxCell>
                <mxCell id="102" style="edgeStyle=none;html=1;exitX=1;exitY=0;exitDx=0;exitDy=0;entryX=0;entryY=0;entryDx=0;entryDy=0;fontSize=8;endArrow=none;endFill=0;fillColor=#dae8fc;strokeColor=#6c8ebf;" edge="1" parent="1" source="26" target="69">
                    <mxGeometry relative="1" as="geometry"/>
                </mxCell>
                <mxCell id="103" style="edgeStyle=none;html=1;exitX=1;exitY=1;exitDx=0;exitDy=0;entryX=0;entryY=1;entryDx=0;entryDy=0;fontSize=8;endArrow=none;endFill=0;fillColor=#dae8fc;strokeColor=#6c8ebf;" edge="1" parent="1" source="26" target="69">
                    <mxGeometry relative="1" as="geometry"/>
                </mxCell>
                <mxCell id="26" value="" style="rounded=0;whiteSpace=wrap;html=1;align=left;fillColor=#dae8fc;strokeColor=#6c8ebf;" parent="1" vertex="1">
                    <mxGeometry x="100" y="220" width="40" height="200" as="geometry"/>
                </mxCell>
                <mxCell id="29" value="Power" style="rounded=0;whiteSpace=wrap;html=1;fontSize=8;align=left;" parent="1" vertex="1">
                    <mxGeometry x="100" y="220" width="35" height="15" as="geometry"/>
                </mxCell>
                <mxCell id="59" style="edgeStyle=none;html=1;exitX=1;exitY=0.5;exitDx=0;exitDy=0;entryX=0;entryY=0.17;entryDx=0;entryDy=0;entryPerimeter=0;endArrow=none;endFill=0;rounded=0;" edge="1" parent="1" source="33" target="58">
                    <mxGeometry relative="1" as="geometry">
                        <mxPoint x="300" y="250" as="targetPoint"/>
                        <Array as="points">
                            <mxPoint x="180" y="243"/>
                            <mxPoint x="180" y="250"/>
                        </Array>
                    </mxGeometry>
                </mxCell>
                <mxCell id="101" value="PIO" style="edgeLabel;html=1;align=center;verticalAlign=middle;resizable=0;points=[];fontSize=8;" vertex="1" connectable="0" parent="59">
                    <mxGeometry x="0.7614" relative="1" as="geometry">
                        <mxPoint x="21" as="offset"/>
                    </mxGeometry>
                </mxCell>
                <mxCell id="33" value="Audio" style="rounded=0;whiteSpace=wrap;html=1;fontSize=8;align=left;" parent="1" vertex="1">
                    <mxGeometry x="100" y="235" width="35" height="15" as="geometry"/>
                </mxCell>
                <mxCell id="60" style="edgeStyle=none;html=1;exitX=1;exitY=0.5;exitDx=0;exitDy=0;entryX=0;entryY=0.33;entryDx=0;entryDy=0;entryPerimeter=0;endArrow=none;endFill=0;rounded=0;" edge="1" parent="1" source="34" target="58">
                    <mxGeometry relative="1" as="geometry">
                        <mxPoint x="305" y="265" as="targetPoint"/>
                        <Array as="points">
                            <mxPoint x="180" y="260"/>
                        </Array>
                    </mxGeometry>
                </mxCell>
                <mxCell id="100" value="HSTX" style="edgeLabel;html=1;align=center;verticalAlign=middle;resizable=0;points=[];fontSize=8;" vertex="1" connectable="0" parent="60">
                    <mxGeometry x="0.496" y="1" relative="1" as="geometry">
                        <mxPoint x="38" y="1" as="offset"/>
                    </mxGeometry>
                </mxCell>
                <mxCell id="34" value="Video" style="rounded=0;whiteSpace=wrap;html=1;fontSize=8;align=left;" parent="1" vertex="1">
                    <mxGeometry x="100" y="250" width="35" height="15" as="geometry"/>
                </mxCell>
                <mxCell id="61" style="edgeStyle=none;html=1;exitX=1;exitY=0.5;exitDx=0;exitDy=0;entryX=0;entryY=0.5;entryDx=0;entryDy=0;entryPerimeter=0;endArrow=none;endFill=0;rounded=0;" edge="1" parent="1" source="39" target="58">
                    <mxGeometry relative="1" as="geometry">
                        <mxPoint x="300" y="285" as="targetPoint"/>
                        <Array as="points">
                            <mxPoint x="180" y="270"/>
                        </Array>
                    </mxGeometry>
                </mxCell>
                <mxCell id="98" value="PIO" style="edgeLabel;html=1;align=center;verticalAlign=middle;resizable=0;points=[];fontSize=8;" vertex="1" connectable="0" parent="61">
                    <mxGeometry x="0.6909" y="-1" relative="1" as="geometry">
                        <mxPoint x="24" y="-1" as="offset"/>
                    </mxGeometry>
                </mxCell>
                <mxCell id="39" value="Generic" style="rounded=0;whiteSpace=wrap;html=1;fontSize=8;align=left;" parent="1" vertex="1">
                    <mxGeometry x="100" y="265" width="35" height="15" as="geometry"/>
                </mxCell>
                <mxCell id="62" style="edgeStyle=none;html=1;exitX=1;exitY=0.5;exitDx=0;exitDy=0;entryX=0;entryY=0.67;entryDx=0;entryDy=0;entryPerimeter=0;endArrow=none;endFill=0;rounded=0;" edge="1" parent="1" source="49" target="58">
                    <mxGeometry relative="1" as="geometry">
                        <mxPoint x="310" y="295" as="targetPoint"/>
                        <Array as="points">
                            <mxPoint x="180" y="288"/>
                            <mxPoint x="180" y="280"/>
                        </Array>
                    </mxGeometry>
                </mxCell>
                <mxCell id="99" value="I²C" style="edgeLabel;html=1;align=center;verticalAlign=middle;resizable=0;points=[];fontSize=8;" vertex="1" connectable="0" parent="62">
                    <mxGeometry x="0.7692" relative="1" as="geometry">
                        <mxPoint x="20" as="offset"/>
                    </mxGeometry>
                </mxCell>
                <mxCell id="49" value="I²C" style="rounded=0;whiteSpace=wrap;html=1;fontSize=8;align=left;" parent="1" vertex="1">
                    <mxGeometry x="100" y="280" width="35" height="15" as="geometry"/>
                </mxCell>
                <mxCell id="83" style="edgeStyle=none;html=1;exitX=0.83;exitY=1;exitDx=0;exitDy=0;exitPerimeter=0;entryX=0.655;entryY=0.027;entryDx=0;entryDy=0;fontSize=12;endArrow=none;endFill=0;rounded=0;entryPerimeter=0;" edge="1" parent="1" target="81">
                    <mxGeometry relative="1" as="geometry">
                        <mxPoint x="259.5999999999999" y="299.5" as="sourcePoint"/>
                    </mxGeometry>
                </mxCell>
                <mxCell id="85" value="USB" style="edgeLabel;html=1;align=center;verticalAlign=middle;resizable=0;points=[];fontSize=8;rounded=0;" vertex="1" connectable="0" parent="83">
                    <mxGeometry x="-0.308" y="1" relative="1" as="geometry">
                        <mxPoint x="-1" y="-13" as="offset"/>
                    </mxGeometry>
                </mxCell>
                <mxCell id="65" style="edgeStyle=none;html=1;exitX=0.33;exitY=0;exitDx=0;exitDy=0;exitPerimeter=0;entryX=0.17;entryY=1;entryDx=0;entryDy=0;entryPerimeter=0;endArrow=none;endFill=0;rounded=0;" edge="1" parent="1" source="64">
                    <mxGeometry relative="1" as="geometry">
                        <mxPoint x="320.4" y="300" as="targetPoint"/>
                    </mxGeometry>
                </mxCell>
                <mxCell id="67" value="SWD" style="edgeLabel;html=1;align=center;verticalAlign=middle;resizable=0;points=[];fontSize=8;rounded=0;" vertex="1" connectable="0" parent="65">
                    <mxGeometry x="-0.3667" y="-1" relative="1" as="geometry">
                        <mxPoint x="-3" y="-20" as="offset"/>
                    </mxGeometry>
                </mxCell>
                <mxCell id="66" style="edgeStyle=none;html=1;exitX=0.67;exitY=0;exitDx=0;exitDy=0;exitPerimeter=0;entryX=0.33;entryY=1;entryDx=0;entryDy=0;entryPerimeter=0;endArrow=none;endFill=0;rounded=0;" edge="1" parent="1" source="64">
                    <mxGeometry relative="1" as="geometry">
                        <mxPoint x="339.6" y="300" as="targetPoint"/>
                    </mxGeometry>
                </mxCell>
                <mxCell id="68" value="UART" style="edgeLabel;html=1;align=center;verticalAlign=middle;resizable=0;points=[];fontSize=8;rounded=0;" vertex="1" connectable="0" parent="66">
                    <mxGeometry x="-0.3833" y="-1" relative="1" as="geometry">
                        <mxPoint x="-1" y="-20" as="offset"/>
                    </mxGeometry>
                </mxCell>
                <mxCell id="64" value="Debug Probe" style="rounded=0;whiteSpace=wrap;html=1;points=[[0,0.17,0,0,0],[0,0.33,0,0,0],[0,0.5,0,0,0],[0,0.67,0,0,0],[0,0.83,0,0,0],[0.17,0,0,0,0],[0.17,1,0,0,0],[0.33,0,0,0,0],[0.33,1,0,0,0],[0.5,0,0,0,0],[0.5,1,0,0,0],[0.67,0,0,0,0],[0.67,1,0,0,0],[0.83,0,0,0,0],[0.83,1,0,0,0],[1,0.17,0,0,0],[1,0.33,0,0,0],[1,0.5,0,0,0],[1,0.67,0,0,0],[1,0.83,0,0,0]];" vertex="1" parent="1">
                    <mxGeometry x="300" y="320" width="60" height="60" as="geometry"/>
                </mxCell>
                <mxCell id="69" value="" style="rounded=0;whiteSpace=wrap;html=1;align=left;fillColor=#dae8fc;strokeColor=#6c8ebf;" vertex="1" parent="1">
                    <mxGeometry x="520" y="220" width="40" height="200" as="geometry"/>
                </mxCell>
                <mxCell id="70" value="Ethernet" style="rounded=0;whiteSpace=wrap;html=1;fontSize=8;align=left;" vertex="1" parent="1">
                    <mxGeometry x="525" y="262.5" width="35" height="15" as="geometry"/>
                </mxCell>
                <mxCell id="82" style="edgeStyle=none;html=1;exitX=0;exitY=0.5;exitDx=0;exitDy=0;entryX=0.8;entryY=1;entryDx=0;entryDy=0;fontSize=12;endArrow=none;endFill=0;rounded=0;entryPerimeter=0;" edge="1" parent="1" source="72" target="81">
                    <mxGeometry relative="1" as="geometry">
                        <Array as="points">
                            <mxPoint x="268" y="400"/>
                        </Array>
                    </mxGeometry>
                </mxCell>
                <mxCell id="72" value="USB A" style="rounded=0;whiteSpace=wrap;html=1;fontSize=8;align=left;" vertex="1" parent="1">
                    <mxGeometry x="525" y="392" width="35" height="15" as="geometry"/>
                </mxCell>
                <mxCell id="75" style="edgeStyle=none;html=1;exitX=0;exitY=0.5;exitDx=0;exitDy=0;entryX=1;entryY=0.5;entryDx=0;entryDy=0;entryPerimeter=0;fontSize=8;endArrow=none;endFill=0;rounded=0;" edge="1" parent="1" source="74" target="64">
                    <mxGeometry relative="1" as="geometry"/>
                </mxCell>
                <mxCell id="74" value="USB-C" style="rounded=0;whiteSpace=wrap;html=1;fontSize=8;align=left;" vertex="1" parent="1">
                    <mxGeometry x="525" y="342.5" width="35" height="15" as="geometry"/>
                </mxCell>
                <mxCell id="77" style="edgeStyle=none;html=1;exitX=1;exitY=0.5;exitDx=0;exitDy=0;entryX=0;entryY=0.5;entryDx=0;entryDy=0;fontSize=8;endArrow=none;endFill=0;rounded=0;" edge="1" parent="1" source="76" target="70">
                    <mxGeometry relative="1" as="geometry"/>
                </mxCell>
                <mxCell id="78" style="edgeStyle=none;html=1;exitX=0;exitY=0.5;exitDx=0;exitDy=0;entryX=1;entryY=0.5;entryDx=0;entryDy=0;entryPerimeter=0;fontSize=8;endArrow=none;endFill=0;rounded=0;" edge="1" parent="1" source="76" target="58">
                    <mxGeometry relative="1" as="geometry"/>
                </mxCell>
                <mxCell id="79" value="SPI" style="edgeLabel;html=1;align=center;verticalAlign=middle;resizable=0;points=[];fontSize=8;rounded=0;" vertex="1" connectable="0" parent="78">
                    <mxGeometry x="0.54" relative="1" as="geometry">
                        <mxPoint x="-18" as="offset"/>
                    </mxGeometry>
                </mxCell>
                <mxCell id="76" value="ENC424J600" style="rounded=0;whiteSpace=wrap;html=1;fontSize=12;" vertex="1" parent="1">
                    <mxGeometry x="400" y="240" width="80" height="60" as="geometry"/>
                </mxCell>
                <mxCell id="87" style="edgeStyle=none;html=1;exitX=0.6;exitY=1;exitDx=0;exitDy=0;entryX=1;entryY=0.5;entryDx=0;entryDy=0;fontSize=8;endArrow=none;endFill=0;rounded=0;exitPerimeter=0;" edge="1" parent="1" target="86">
                    <mxGeometry relative="1" as="geometry">
                        <mxPoint x="256" y="360" as="sourcePoint"/>
                        <mxPoint x="215" y="399.5" as="targetPoint"/>
                        <Array as="points">
                            <mxPoint x="256" y="400"/>
                        </Array>
                    </mxGeometry>
                </mxCell>
                <mxCell id="96" style="edgeStyle=none;html=1;exitX=0.2;exitY=1;exitDx=0;exitDy=0;entryX=1;entryY=0.5;entryDx=0;entryDy=0;fontSize=8;endArrow=none;endFill=0;rounded=0;exitPerimeter=0;" edge="1" parent="1" source="81" target="88">
                    <mxGeometry relative="1" as="geometry">
                        <Array as="points">
                            <mxPoint x="232" y="370"/>
                            <mxPoint x="200" y="370"/>
                            <mxPoint x="200" y="303"/>
                        </Array>
                    </mxGeometry>
                </mxCell>
                <mxCell id="81" value="USB Hub" style="rounded=0;whiteSpace=wrap;html=1;fontSize=12;points=[[0,0,0,0,0],[0,0.25,0,0,0],[0,0.5,0,0,0],[0,0.75,0,0,0],[0,1,0,0,0],[0.2,1,0,0,0],[0.25,0,0,0,0],[0.4,1,0,0,0],[0.5,0,0,0,0],[0.6,1,0,0,0],[0.75,0,0,0,0],[0.8,1,0,0,0],[1,0,0,0,0],[1,0.25,0,0,0],[1,0.5,0,0,0],[1,0.75,0,0,0],[1,1,0,0,0]];" vertex="1" parent="1">
                    <mxGeometry x="220" y="320" width="60" height="40" as="geometry"/>
                </mxCell>
                <mxCell id="86" value="USB A" style="rounded=0;whiteSpace=wrap;html=1;fontSize=8;align=left;" vertex="1" parent="1">
                    <mxGeometry x="180" y="393" width="35" height="15" as="geometry"/>
                </mxCell>
                <mxCell id="88" value="USB" style="rounded=0;whiteSpace=wrap;html=1;fontSize=8;align=left;" vertex="1" parent="1">
                    <mxGeometry x="100" y="295" width="35" height="15" as="geometry"/>
                </mxCell>
                <mxCell id="97" style="edgeStyle=none;html=1;exitX=1;exitY=0.5;exitDx=0;exitDy=0;entryX=0.4;entryY=1;entryDx=0;entryDy=0;fontSize=8;endArrow=none;endFill=0;rounded=0;entryPerimeter=0;" edge="1" parent="1" source="89" target="81">
                    <mxGeometry relative="1" as="geometry">
                        <Array as="points">
                            <mxPoint x="180" y="318"/>
                            <mxPoint x="180" y="380"/>
                            <mxPoint x="244" y="380"/>
                        </Array>
                    </mxGeometry>
                </mxCell>
                <mxCell id="89" value="USB" style="rounded=0;whiteSpace=wrap;html=1;fontSize=8;align=left;" vertex="1" parent="1">
                    <mxGeometry x="100" y="310" width="35" height="15" as="geometry"/>
                </mxCell>
            </root>
        </mxGraphModel>
    </diagram>
</mxfile>